<svg id="Capa_1" enable-background="new 0 0 512 512" height="512" viewBox="0 0 512 512" width="512" xmlns="http://www.w3.org/2000/svg"><g><path d="m270.851 512h-150v-30h150c16.538 0 30-15.462 30-32v-108h30v108c0 33.091-26.909 62-60 62z" fill="#5a344b"/><g><path d="m358.859 270.469-35.537 27.598c-6.504 5.083-15.967 3.911-21.05-2.651l-54.236-62.6-56.902-65.676c-5.068-6.533-3.882-15.981 2.637-21.05l35.552-27.598-91.978-118.492-35.552 27.598c-45.859 35.583-54.137 101.514-18.56 147.334l100.543 122.142 102.587 124.625c25.333 32.611 72.349 38.782 105.234 13.257l59.253-45.996z" fill="#ff7b4a"/><path d="m391.598 434.956 59.253-45.996-91.992-118.491-35.537 27.598c-6.504 5.083-15.967 3.911-21.05-2.651l-54.236-62.6-64.259 64.259 102.587 124.625c25.332 32.61 72.348 38.781 105.234 13.256z" fill="#ff435b"/><g fill="#64e1dc"><path d="m255.851 120v30c20.676 0 39.426 8.412 53.007 21.993s21.993 32.331 21.993 53.007h30c0-28.945-11.777-55.195-30.791-74.209s-45.264-30.791-74.209-30.791z"/><path d="m255.851 180v30c4.138 0 7.888 1.681 10.604 4.396s4.396 6.465 4.396 10.604h30c0-12.407-5.046-23.657-13.195-31.805s-19.398-13.195-31.805-13.195z"/><path d="m372.469 108.382c-29.877-29.877-71.127-48.382-116.618-48.382v30c37.222 0 70.972 15.139 95.416 39.584s39.584 58.195 39.584 95.416h30c0-45.491-18.505-86.741-48.382-116.618z"/></g><g fill="#00c8c8"><path d="m420.851 225c0-45.491-18.505-86.741-48.382-116.618l-21.202 21.202c24.445 24.445 39.584 58.195 39.584 95.416z"/><path d="m360.851 225c0-28.945-11.777-55.195-30.791-74.209l-21.202 21.202c13.581 13.581 21.993 32.331 21.993 53.007z"/><path d="m300.851 225c0-12.407-5.046-23.657-13.195-31.805l-21.202 21.202c2.715 2.715 4.396 6.465 4.396 10.604h30.001z"/></g></g></g></svg>