<?xml version="1.0" encoding="iso-8859-1"?>
<!-- Generator: Adobe Illustrator 19.0.0, SVG Export Plug-In . SVG Version: 6.00 Build 0)  -->
<svg version="1.1" id="Capa_1" xmlns="http://www.w3.org/2000/svg" xmlns:xlink="http://www.w3.org/1999/xlink" x="0px" y="0px"
	 viewBox="0 0 512.001 512.001" style="enable-background:new 0 0 512.001 512.001;" xml:space="preserve">
<path style="fill:#32D736;" d="M478.9,504.801c-2.999,4.499-7.8,7.2-12.9,7.2H46c-5.099,0-9.901-2.701-12.9-7.2
	c-2.701-4.2-2.701-9.901-0.601-14.401l60-121c2.701-5.099,7.8-8.399,13.5-8.399h300c5.7,0,10.8,3.3,13.5,8.399l60,121
	C481.601,494.901,481.601,500.601,478.9,504.801z"/>
<path style="fill:#10BB67;" d="M478.9,504.801c-2.999,4.499-7.8,7.2-12.9,7.2H256v-151h150c5.7,0,10.8,3.3,13.5,8.399l60,121
	C481.601,494.901,481.601,500.601,478.9,504.801z"/>
<path style="fill:#FF507E;" d="M258.701,0.001H256C150.4-0.3,61.901,86.8,61,194.201c-0.3,59.7,25.499,113.399,68.101,150L246.1,445
	c3.001,2.401,6.301,3.6,9.901,3.6c3.6,0,6.899-1.199,9.901-3.6l116.999-100.8C425.201,307.9,451,254.8,451,196.001
	C451,91.301,367.301,2.101,258.701,0.001z"/>
<path style="fill:#F40F78;" d="M451,196.001c0,58.799-25.8,111.899-68.101,148.2L265.901,445c-3.001,2.401-6.301,3.6-9.901,3.6
	V0.001h2.701C367.301,2.101,451,91.301,451,196.001z"/>
<path style="fill:#E1E4FB;" d="M256,61.001c-74.7,0-135,60.3-135,135c0,40.199,17.401,76.199,45.3,100.499
	c23.7,21.601,55.2,34.501,89.7,34.501s66-12.9,89.7-34.501c27.9-24.3,45.3-60.3,45.3-100.499C391,121.301,330.7,61.001,256,61.001z"
	/>
<path style="fill:#C5C9F7;" d="M391,196.001c0,40.199-17.4,76.199-45.3,100.499c-23.699,21.601-55.199,34.501-89.7,34.501v-270
	C330.7,61.001,391,121.301,391,196.001z"/>
<path style="fill:#1689FC;" d="M345.7,296.5c-23.699,21.601-55.199,34.501-89.7,34.501s-66-12.9-89.7-34.501
	c0.3-8.699,2.1-17.699,5.099-26.1C184,235,218.2,211.001,256,211.001c30,0,57.9,14.7,74.7,39.6C340,264.7,345.1,280,345.7,296.5z"/>
<path style="fill:#17ACE8;" d="M256,121.001c-32.999,0-60,26.999-60,60c0,32.999,27.001,60,60,60s60-27.001,60-60
	C316,148,289,121.001,256,121.001z"/>
<path style="fill:#136EF1;" d="M345.7,296.5c-23.699,21.601-55.199,34.501-89.7,34.501v-120c30,0,57.9,14.7,74.7,39.6
	C340,264.7,345.1,280,345.7,296.5z"/>
<path style="fill:#1689FC;" d="M316,181.001c0,32.999-27.001,60-60,60v-120C289,121.001,316,148,316,181.001z"/>
<g>
</g>
<g>
</g>
<g>
</g>
<g>
</g>
<g>
</g>
<g>
</g>
<g>
</g>
<g>
</g>
<g>
</g>
<g>
</g>
<g>
</g>
<g>
</g>
<g>
</g>
<g>
</g>
<g>
</g>
</svg>
